<mxfile host="app.diagrams.net" modified="2024-05-24T17:56:26.366Z" agent="Mozilla/5.0 (Windows NT 10.0; Win64; x64) AppleWebKit/537.36 (KHTML, like Gecko) Chrome/125.0.0.0 Safari/537.36" etag="t6PQ0VuLTBuxz325X4fZ" version="24.4.6" type="device">
  <diagram name="Страница — 1" id="MQ8xpzXWZ4cVe-FUF9sx">
    <mxGraphModel dx="1222" dy="1852" grid="1" gridSize="10" guides="1" tooltips="1" connect="1" arrows="1" fold="1" page="1" pageScale="1" pageWidth="827" pageHeight="1169" math="0" shadow="0">
      <root>
        <mxCell id="0" />
        <mxCell id="1" parent="0" />
        <mxCell id="ZnF89vh4Ff0g64tPXFYP-1" value="Клиент" style="shape=umlActor;verticalLabelPosition=middle;verticalAlign=middle;html=1;outlineConnect=0;labelPosition=left;align=right;" parent="1" vertex="1">
          <mxGeometry x="110" y="-969" width="30" height="60" as="geometry" />
        </mxCell>
        <mxCell id="ZnF89vh4Ff0g64tPXFYP-2" value="Бариста" style="shape=umlActor;verticalLabelPosition=bottom;verticalAlign=top;html=1;outlineConnect=0;" parent="1" vertex="1">
          <mxGeometry x="241" y="-630" width="30" height="60" as="geometry" />
        </mxCell>
        <mxCell id="ZnF89vh4Ff0g64tPXFYP-3" value="Поставщик" style="shape=umlActor;verticalLabelPosition=middle;verticalAlign=middle;html=1;outlineConnect=0;labelPosition=left;align=right;" parent="1" vertex="1">
          <mxGeometry x="110" y="-80" width="30" height="60" as="geometry" />
        </mxCell>
        <mxCell id="ZnF89vh4Ff0g64tPXFYP-4" value="Менеджер" style="shape=umlActor;verticalLabelPosition=bottom;verticalAlign=top;html=1;outlineConnect=0;" parent="1" vertex="1">
          <mxGeometry x="241" y="-300" width="30" height="60" as="geometry" />
        </mxCell>
        <mxCell id="ZnF89vh4Ff0g64tPXFYP-5" value="Сотрудник" style="shape=umlActor;verticalLabelPosition=middle;verticalAlign=middle;html=1;outlineConnect=0;labelPosition=left;align=right;" parent="1" vertex="1">
          <mxGeometry x="110" y="-490" width="30" height="60" as="geometry" />
        </mxCell>
        <mxCell id="ZnF89vh4Ff0g64tPXFYP-22" value="Оформить&lt;span style=&quot;background-color: initial;&quot;&gt;&amp;nbsp;заказ&lt;/span&gt;" style="ellipse;whiteSpace=wrap;html=1;" parent="1" vertex="1">
          <mxGeometry x="200" y="-1049" width="100" height="50" as="geometry" />
        </mxCell>
        <mxCell id="ZnF89vh4Ff0g64tPXFYP-44" value="" style="endArrow=open;endFill=1;endSize=12;html=1;rounded=0;exitX=1;exitY=0.3333333333333333;exitDx=0;exitDy=0;exitPerimeter=0;entryX=0;entryY=0.5;entryDx=0;entryDy=0;" parent="1" source="ZnF89vh4Ff0g64tPXFYP-1" target="ZnF89vh4Ff0g64tPXFYP-22" edge="1">
          <mxGeometry width="160" relative="1" as="geometry">
            <mxPoint x="220" y="-949" as="sourcePoint" />
            <mxPoint x="380" y="-949" as="targetPoint" />
          </mxGeometry>
        </mxCell>
        <mxCell id="ZnF89vh4Ff0g64tPXFYP-45" value="Выбрать напитки&lt;div&gt;и закуски из меню&lt;/div&gt;" style="ellipse;whiteSpace=wrap;html=1;" parent="1" vertex="1">
          <mxGeometry x="184" y="-1169" width="130" height="70" as="geometry" />
        </mxCell>
        <mxCell id="ZnF89vh4Ff0g64tPXFYP-46" value="&quot;include&quot;" style="endArrow=open;html=1;rounded=0;align=center;verticalAlign=bottom;dashed=1;endFill=0;labelBackgroundColor=none;entryX=0.5;entryY=1;entryDx=0;entryDy=0;exitX=0.5;exitY=0;exitDx=0;exitDy=0;" parent="1" source="ZnF89vh4Ff0g64tPXFYP-22" target="ZnF89vh4Ff0g64tPXFYP-45" edge="1">
          <mxGeometry x="-0.1763" y="30" relative="1" as="geometry">
            <mxPoint x="550" y="-1159" as="sourcePoint" />
            <mxPoint x="424" y="-826" as="targetPoint" />
            <mxPoint as="offset" />
          </mxGeometry>
        </mxCell>
        <mxCell id="ZnF89vh4Ff0g64tPXFYP-48" value="Оформить на кассе" style="ellipse;whiteSpace=wrap;html=1;" parent="1" vertex="1">
          <mxGeometry x="314" y="-1089" width="100" height="50" as="geometry" />
        </mxCell>
        <mxCell id="ZnF89vh4Ff0g64tPXFYP-49" value="Оформить онлайн" style="ellipse;whiteSpace=wrap;html=1;" parent="1" vertex="1">
          <mxGeometry x="314" y="-1009" width="100" height="50" as="geometry" />
        </mxCell>
        <mxCell id="ZnF89vh4Ff0g64tPXFYP-53" value="Прийти на работу" style="ellipse;whiteSpace=wrap;html=1;" parent="1" vertex="1">
          <mxGeometry x="201" y="-497.5" width="110" height="55" as="geometry" />
        </mxCell>
        <mxCell id="ZnF89vh4Ff0g64tPXFYP-54" value="" style="endArrow=open;endFill=1;endSize=12;html=1;rounded=0;exitX=1;exitY=0.3333333333333333;exitDx=0;exitDy=0;exitPerimeter=0;entryX=0;entryY=0.5;entryDx=0;entryDy=0;" parent="1" source="ZnF89vh4Ff0g64tPXFYP-5" target="ZnF89vh4Ff0g64tPXFYP-53" edge="1">
          <mxGeometry width="160" relative="1" as="geometry">
            <mxPoint x="255" y="-470" as="sourcePoint" />
            <mxPoint x="401" y="-537.5" as="targetPoint" />
          </mxGeometry>
        </mxCell>
        <mxCell id="ZnF89vh4Ff0g64tPXFYP-57" value="Отметиться на работе" style="ellipse;whiteSpace=wrap;html=1;" parent="1" vertex="1">
          <mxGeometry x="206" y="-415" width="100" height="50" as="geometry" />
        </mxCell>
        <mxCell id="ZnF89vh4Ff0g64tPXFYP-59" value="&quot;include&quot;" style="endArrow=open;html=1;rounded=0;align=center;verticalAlign=bottom;dashed=1;endFill=0;labelBackgroundColor=none;entryX=0.5;entryY=0;entryDx=0;entryDy=0;exitX=0.5;exitY=1;exitDx=0;exitDy=0;" parent="1" source="ZnF89vh4Ff0g64tPXFYP-53" target="ZnF89vh4Ff0g64tPXFYP-57" edge="1">
          <mxGeometry x="1" y="25" relative="1" as="geometry">
            <mxPoint x="368" y="-410" as="sourcePoint" />
            <mxPoint x="367" y="-460" as="targetPoint" />
            <mxPoint as="offset" />
          </mxGeometry>
        </mxCell>
        <mxCell id="ZnF89vh4Ff0g64tPXFYP-60" value="" style="endArrow=block;endSize=12;endFill=0;html=1;rounded=0;entryX=0.75;entryY=0.1;entryDx=0;entryDy=0;entryPerimeter=0;exitX=0;exitY=0.3333333333333333;exitDx=0;exitDy=0;exitPerimeter=0;" parent="1" source="ZnF89vh4Ff0g64tPXFYP-2" target="ZnF89vh4Ff0g64tPXFYP-5" edge="1">
          <mxGeometry width="160" relative="1" as="geometry">
            <mxPoint x="281" y="-420" as="sourcePoint" />
            <mxPoint x="441" y="-420" as="targetPoint" />
          </mxGeometry>
        </mxCell>
        <mxCell id="ZnF89vh4Ff0g64tPXFYP-61" value="" style="endArrow=block;endSize=12;endFill=0;html=1;rounded=0;entryX=1;entryY=1;entryDx=0;entryDy=0;entryPerimeter=0;exitX=0;exitY=0.3333333333333333;exitDx=0;exitDy=0;exitPerimeter=0;" parent="1" source="ZnF89vh4Ff0g64tPXFYP-4" target="ZnF89vh4Ff0g64tPXFYP-5" edge="1">
          <mxGeometry width="160" relative="1" as="geometry">
            <mxPoint x="341" y="-570" as="sourcePoint" />
            <mxPoint x="138" y="-474" as="targetPoint" />
          </mxGeometry>
        </mxCell>
        <mxCell id="ZnF89vh4Ff0g64tPXFYP-62" value="Принять заказ" style="ellipse;whiteSpace=wrap;html=1;" parent="1" vertex="1">
          <mxGeometry x="331" y="-680" width="110" height="55" as="geometry" />
        </mxCell>
        <mxCell id="ZnF89vh4Ff0g64tPXFYP-63" value="Выполнить заказ" style="ellipse;whiteSpace=wrap;html=1;" parent="1" vertex="1">
          <mxGeometry x="335" y="-600" width="106" height="60" as="geometry" />
        </mxCell>
        <mxCell id="ZnF89vh4Ff0g64tPXFYP-64" value="" style="endArrow=open;endFill=1;endSize=12;html=1;rounded=0;entryX=0;entryY=0.5;entryDx=0;entryDy=0;exitX=1;exitY=0.3333333333333333;exitDx=0;exitDy=0;exitPerimeter=0;" parent="1" source="ZnF89vh4Ff0g64tPXFYP-2" target="ZnF89vh4Ff0g64tPXFYP-62" edge="1">
          <mxGeometry width="160" relative="1" as="geometry">
            <mxPoint x="145" y="-460" as="sourcePoint" />
            <mxPoint x="211" y="-492" as="targetPoint" />
          </mxGeometry>
        </mxCell>
        <mxCell id="ZnF89vh4Ff0g64tPXFYP-65" value="" style="endArrow=open;endFill=1;endSize=12;html=1;rounded=0;entryX=0;entryY=0.5;entryDx=0;entryDy=0;exitX=1;exitY=0.3333333333333333;exitDx=0;exitDy=0;exitPerimeter=0;" parent="1" source="ZnF89vh4Ff0g64tPXFYP-2" target="ZnF89vh4Ff0g64tPXFYP-63" edge="1">
          <mxGeometry width="160" relative="1" as="geometry">
            <mxPoint x="281" y="-600" as="sourcePoint" />
            <mxPoint x="371" y="-632" as="targetPoint" />
          </mxGeometry>
        </mxCell>
        <mxCell id="ZnF89vh4Ff0g64tPXFYP-67" value="Изменить статус заказа" style="ellipse;whiteSpace=wrap;html=1;" parent="1" vertex="1">
          <mxGeometry x="491" y="-640" width="110" height="65" as="geometry" />
        </mxCell>
        <mxCell id="ZnF89vh4Ff0g64tPXFYP-68" value="&quot;include&quot;" style="endArrow=open;html=1;rounded=0;align=center;verticalAlign=bottom;dashed=1;endFill=0;labelBackgroundColor=none;entryX=0;entryY=0;entryDx=0;entryDy=0;exitX=1;exitY=0.5;exitDx=0;exitDy=0;" parent="1" source="ZnF89vh4Ff0g64tPXFYP-62" target="ZnF89vh4Ff0g64tPXFYP-67" edge="1">
          <mxGeometry x="-0.1606" y="-25" relative="1" as="geometry">
            <mxPoint x="266" y="-387" as="sourcePoint" />
            <mxPoint x="266" y="-360" as="targetPoint" />
            <mxPoint as="offset" />
          </mxGeometry>
        </mxCell>
        <mxCell id="ZnF89vh4Ff0g64tPXFYP-69" value="&quot;include&quot;" style="endArrow=open;html=1;rounded=0;align=center;verticalAlign=bottom;dashed=1;endFill=0;labelBackgroundColor=none;entryX=0;entryY=1;entryDx=0;entryDy=0;exitX=1;exitY=0.5;exitDx=0;exitDy=0;" parent="1" source="ZnF89vh4Ff0g64tPXFYP-63" target="ZnF89vh4Ff0g64tPXFYP-67" edge="1">
          <mxGeometry x="-0.191" y="4" relative="1" as="geometry">
            <mxPoint x="451" y="-642" as="sourcePoint" />
            <mxPoint x="491" y="-570" as="targetPoint" />
            <mxPoint as="offset" />
          </mxGeometry>
        </mxCell>
        <mxCell id="ZnF89vh4Ff0g64tPXFYP-70" value="Изменить на &quot;готов&quot;" style="ellipse;whiteSpace=wrap;html=1;" parent="1" vertex="1">
          <mxGeometry x="611" y="-593.75" width="110" height="47.5" as="geometry" />
        </mxCell>
        <mxCell id="ZnF89vh4Ff0g64tPXFYP-71" value="Изменить на &quot;готовится&quot;" style="ellipse;whiteSpace=wrap;html=1;" parent="1" vertex="1">
          <mxGeometry x="611" y="-677.5" width="110" height="50" as="geometry" />
        </mxCell>
        <mxCell id="ZnF89vh4Ff0g64tPXFYP-76" value="" style="endArrow=block;endSize=12;endFill=0;html=1;rounded=0;entryX=1;entryY=0;entryDx=0;entryDy=0;exitX=0;exitY=0.5;exitDx=0;exitDy=0;" parent="1" source="ZnF89vh4Ff0g64tPXFYP-48" target="ZnF89vh4Ff0g64tPXFYP-22" edge="1">
          <mxGeometry width="160" relative="1" as="geometry">
            <mxPoint x="330" y="-849" as="sourcePoint" />
            <mxPoint x="298" y="-892" as="targetPoint" />
          </mxGeometry>
        </mxCell>
        <mxCell id="ZnF89vh4Ff0g64tPXFYP-77" value="" style="endArrow=block;endSize=12;endFill=0;html=1;rounded=0;entryX=1;entryY=1;entryDx=0;entryDy=0;exitX=0;exitY=0.5;exitDx=0;exitDy=0;" parent="1" source="ZnF89vh4Ff0g64tPXFYP-49" target="ZnF89vh4Ff0g64tPXFYP-22" edge="1">
          <mxGeometry width="160" relative="1" as="geometry">
            <mxPoint x="324" y="-1064" as="sourcePoint" />
            <mxPoint x="295" y="-1032" as="targetPoint" />
          </mxGeometry>
        </mxCell>
        <mxCell id="ZnF89vh4Ff0g64tPXFYP-78" value="" style="endArrow=block;endSize=12;endFill=0;html=1;rounded=0;exitX=0;exitY=0.5;exitDx=0;exitDy=0;entryX=1;entryY=0;entryDx=0;entryDy=0;" parent="1" source="ZnF89vh4Ff0g64tPXFYP-71" target="ZnF89vh4Ff0g64tPXFYP-67" edge="1">
          <mxGeometry width="160" relative="1" as="geometry">
            <mxPoint x="601" y="-717" as="sourcePoint" />
            <mxPoint x="569" y="-760" as="targetPoint" />
          </mxGeometry>
        </mxCell>
        <mxCell id="ZnF89vh4Ff0g64tPXFYP-79" value="" style="endArrow=block;endSize=12;endFill=0;html=1;rounded=0;exitX=0;exitY=0.5;exitDx=0;exitDy=0;entryX=1;entryY=1;entryDx=0;entryDy=0;" parent="1" source="ZnF89vh4Ff0g64tPXFYP-70" target="ZnF89vh4Ff0g64tPXFYP-67" edge="1">
          <mxGeometry width="160" relative="1" as="geometry">
            <mxPoint x="631" y="-637" as="sourcePoint" />
            <mxPoint x="595" y="-620" as="targetPoint" />
          </mxGeometry>
        </mxCell>
        <mxCell id="ZnF89vh4Ff0g64tPXFYP-80" value="Уменьшить количество сырья" style="ellipse;whiteSpace=wrap;html=1;" parent="1" vertex="1">
          <mxGeometry x="330" y="-500" width="116" height="60" as="geometry" />
        </mxCell>
        <mxCell id="ZnF89vh4Ff0g64tPXFYP-81" value="&quot;include&quot;" style="endArrow=open;html=1;rounded=0;align=center;verticalAlign=bottom;dashed=1;endFill=0;labelBackgroundColor=none;entryX=0.5;entryY=0;entryDx=0;entryDy=0;exitX=0.5;exitY=1;exitDx=0;exitDy=0;" parent="1" source="ZnF89vh4Ff0g64tPXFYP-63" target="ZnF89vh4Ff0g64tPXFYP-80" edge="1">
          <mxGeometry x="0.5" y="23" relative="1" as="geometry">
            <mxPoint x="451" y="-560" as="sourcePoint" />
            <mxPoint x="517" y="-575" as="targetPoint" />
            <mxPoint as="offset" />
          </mxGeometry>
        </mxCell>
        <mxCell id="ZnF89vh4Ff0g64tPXFYP-83" value="Оставить отзыв" style="ellipse;whiteSpace=wrap;html=1;" parent="1" vertex="1">
          <mxGeometry x="470" y="-819" width="110" height="50" as="geometry" />
        </mxCell>
        <mxCell id="ZnF89vh4Ff0g64tPXFYP-84" value="Принять заказ" style="ellipse;whiteSpace=wrap;html=1;" parent="1" vertex="1">
          <mxGeometry x="314" y="-939" width="100" height="50" as="geometry" />
        </mxCell>
        <mxCell id="ZnF89vh4Ff0g64tPXFYP-85" value="Не принять&lt;br&gt;заказ" style="ellipse;whiteSpace=wrap;html=1;" parent="1" vertex="1">
          <mxGeometry x="314" y="-819" width="100" height="50" as="geometry" />
        </mxCell>
        <mxCell id="ZnF89vh4Ff0g64tPXFYP-88" value="Получить заказ" style="ellipse;whiteSpace=wrap;html=1;" parent="1" vertex="1">
          <mxGeometry x="210" y="-879" width="100" height="50" as="geometry" />
        </mxCell>
        <mxCell id="ZnF89vh4Ff0g64tPXFYP-89" value="" style="endArrow=open;endFill=1;endSize=12;html=1;rounded=0;exitX=1;exitY=0.3333333333333333;exitDx=0;exitDy=0;exitPerimeter=0;entryX=0;entryY=0.5;entryDx=0;entryDy=0;" parent="1" source="ZnF89vh4Ff0g64tPXFYP-1" target="ZnF89vh4Ff0g64tPXFYP-88" edge="1">
          <mxGeometry width="160" relative="1" as="geometry">
            <mxPoint x="120" y="-969" as="sourcePoint" />
            <mxPoint x="210" y="-1014" as="targetPoint" />
          </mxGeometry>
        </mxCell>
        <mxCell id="ZnF89vh4Ff0g64tPXFYP-91" value="Положительный отзыв" style="ellipse;whiteSpace=wrap;html=1;" parent="1" vertex="1">
          <mxGeometry x="600" y="-849" width="100" height="50" as="geometry" />
        </mxCell>
        <mxCell id="ZnF89vh4Ff0g64tPXFYP-92" value="Негативный&lt;div&gt;отзыв&lt;/div&gt;" style="ellipse;whiteSpace=wrap;html=1;" parent="1" vertex="1">
          <mxGeometry x="600" y="-779" width="100" height="50" as="geometry" />
        </mxCell>
        <mxCell id="ZnF89vh4Ff0g64tPXFYP-93" value="" style="endArrow=block;endSize=12;endFill=0;html=1;rounded=0;exitX=0;exitY=0.5;exitDx=0;exitDy=0;entryX=1;entryY=0;entryDx=0;entryDy=0;" parent="1" source="ZnF89vh4Ff0g64tPXFYP-91" target="ZnF89vh4Ff0g64tPXFYP-83" edge="1">
          <mxGeometry width="160" relative="1" as="geometry">
            <mxPoint x="610" y="-579" as="sourcePoint" />
            <mxPoint x="565" y="-772" as="targetPoint" />
          </mxGeometry>
        </mxCell>
        <mxCell id="ZnF89vh4Ff0g64tPXFYP-94" value="" style="endArrow=block;endSize=12;endFill=0;html=1;rounded=0;entryX=1;entryY=1;entryDx=0;entryDy=0;exitX=0;exitY=0.5;exitDx=0;exitDy=0;" parent="1" source="ZnF89vh4Ff0g64tPXFYP-92" target="ZnF89vh4Ff0g64tPXFYP-83" edge="1">
          <mxGeometry width="160" relative="1" as="geometry">
            <mxPoint x="604" y="-794" as="sourcePoint" />
            <mxPoint x="565" y="-736" as="targetPoint" />
          </mxGeometry>
        </mxCell>
        <mxCell id="ZnF89vh4Ff0g64tPXFYP-97" value="&quot;extend&quot;" style="endArrow=open;html=1;rounded=0;align=center;verticalAlign=bottom;dashed=1;endFill=0;labelBackgroundColor=none;exitX=0;exitY=0.5;exitDx=0;exitDy=0;entryX=1;entryY=0.5;entryDx=0;entryDy=0;" parent="1" source="ZnF89vh4Ff0g64tPXFYP-83" target="ZnF89vh4Ff0g64tPXFYP-85" edge="1">
          <mxGeometry x="-0.1304" relative="1" as="geometry">
            <mxPoint x="324" y="-904" as="sourcePoint" />
            <mxPoint x="305" y="-862" as="targetPoint" />
            <mxPoint as="offset" />
          </mxGeometry>
        </mxCell>
        <mxCell id="ZnF89vh4Ff0g64tPXFYP-98" value="&quot;extend&quot;" style="endArrow=open;html=1;rounded=0;align=center;verticalAlign=bottom;dashed=1;endFill=0;labelBackgroundColor=none;exitX=0.5;exitY=0;exitDx=0;exitDy=0;entryX=1;entryY=1;entryDx=0;entryDy=0;" parent="1" source="ZnF89vh4Ff0g64tPXFYP-83" target="ZnF89vh4Ff0g64tPXFYP-84" edge="1">
          <mxGeometry x="-0.381" y="-7" relative="1" as="geometry">
            <mxPoint x="470" y="-784" as="sourcePoint" />
            <mxPoint x="424" y="-784" as="targetPoint" />
            <mxPoint as="offset" />
          </mxGeometry>
        </mxCell>
        <mxCell id="ZnF89vh4Ff0g64tPXFYP-99" value="Выдать заказ" style="ellipse;whiteSpace=wrap;html=1;" parent="1" vertex="1">
          <mxGeometry x="491" y="-546.25" width="110" height="65" as="geometry" />
        </mxCell>
        <mxCell id="ZnF89vh4Ff0g64tPXFYP-100" value="&quot;include&quot;" style="endArrow=open;html=1;rounded=0;align=center;verticalAlign=bottom;dashed=1;endFill=0;labelBackgroundColor=none;entryX=0;entryY=0.5;entryDx=0;entryDy=0;exitX=1;exitY=1;exitDx=0;exitDy=0;" parent="1" source="ZnF89vh4Ff0g64tPXFYP-63" target="ZnF89vh4Ff0g64tPXFYP-99" edge="1">
          <mxGeometry x="0.1987" y="11" relative="1" as="geometry">
            <mxPoint x="451" y="-560" as="sourcePoint" />
            <mxPoint x="517" y="-575" as="targetPoint" />
            <mxPoint as="offset" />
          </mxGeometry>
        </mxCell>
        <mxCell id="ZnF89vh4Ff0g64tPXFYP-101" value="Проверить количество сырья" style="ellipse;whiteSpace=wrap;html=1;" parent="1" vertex="1">
          <mxGeometry x="331" y="-420" width="116" height="60" as="geometry" />
        </mxCell>
        <mxCell id="ZnF89vh4Ff0g64tPXFYP-102" value="Запросить поставку необходимого сырья" style="ellipse;whiteSpace=wrap;html=1;" parent="1" vertex="1">
          <mxGeometry x="501" y="-425" width="136" height="70" as="geometry" />
        </mxCell>
        <mxCell id="ZnF89vh4Ff0g64tPXFYP-103" value="Нанять сотрудника" style="ellipse;whiteSpace=wrap;html=1;" parent="1" vertex="1">
          <mxGeometry x="331" y="-350" width="116" height="60" as="geometry" />
        </mxCell>
        <mxCell id="ZnF89vh4Ff0g64tPXFYP-104" value="" style="endArrow=open;endFill=1;endSize=12;html=1;rounded=0;exitX=1;exitY=0.3333333333333333;exitDx=0;exitDy=0;exitPerimeter=0;entryX=0;entryY=1;entryDx=0;entryDy=0;" parent="1" source="ZnF89vh4Ff0g64tPXFYP-4" target="ZnF89vh4Ff0g64tPXFYP-101" edge="1">
          <mxGeometry width="160" relative="1" as="geometry">
            <mxPoint x="145" y="-460" as="sourcePoint" />
            <mxPoint x="211" y="-415" as="targetPoint" />
          </mxGeometry>
        </mxCell>
        <mxCell id="ZnF89vh4Ff0g64tPXFYP-105" value="" style="endArrow=open;endFill=1;endSize=12;html=1;rounded=0;exitX=1;exitY=0.3333333333333333;exitDx=0;exitDy=0;exitPerimeter=0;entryX=0;entryY=0.5;entryDx=0;entryDy=0;" parent="1" source="ZnF89vh4Ff0g64tPXFYP-4" target="ZnF89vh4Ff0g64tPXFYP-103" edge="1">
          <mxGeometry width="160" relative="1" as="geometry">
            <mxPoint x="281" y="-270" as="sourcePoint" />
            <mxPoint x="338" y="-300" as="targetPoint" />
          </mxGeometry>
        </mxCell>
        <mxCell id="ZnF89vh4Ff0g64tPXFYP-106" value="&quot;extend&quot;" style="endArrow=open;html=1;rounded=0;align=center;verticalAlign=bottom;dashed=1;endFill=0;labelBackgroundColor=none;exitX=0;exitY=0.5;exitDx=0;exitDy=0;entryX=1;entryY=0.5;entryDx=0;entryDy=0;" parent="1" source="ZnF89vh4Ff0g64tPXFYP-102" target="ZnF89vh4Ff0g64tPXFYP-101" edge="1">
          <mxGeometry x="-0.2222" relative="1" as="geometry">
            <mxPoint x="627" y="-363" as="sourcePoint" />
            <mxPoint x="501" y="-440" as="targetPoint" />
            <mxPoint as="offset" />
          </mxGeometry>
        </mxCell>
        <mxCell id="ZnF89vh4Ff0g64tPXFYP-107" value="" style="endArrow=block;endSize=12;endFill=0;html=1;rounded=0;entryX=1;entryY=0;entryDx=0;entryDy=0;exitX=0;exitY=1;exitDx=0;exitDy=0;" parent="1" source="ZnF89vh4Ff0g64tPXFYP-84" target="ZnF89vh4Ff0g64tPXFYP-88" edge="1">
          <mxGeometry width="160" relative="1" as="geometry">
            <mxPoint x="324" y="-1054" as="sourcePoint" />
            <mxPoint x="295" y="-1032" as="targetPoint" />
          </mxGeometry>
        </mxCell>
        <mxCell id="ZnF89vh4Ff0g64tPXFYP-108" value="" style="endArrow=block;endSize=12;endFill=0;html=1;rounded=0;entryX=1;entryY=1;entryDx=0;entryDy=0;exitX=0;exitY=0;exitDx=0;exitDy=0;" parent="1" source="ZnF89vh4Ff0g64tPXFYP-85" target="ZnF89vh4Ff0g64tPXFYP-88" edge="1">
          <mxGeometry width="160" relative="1" as="geometry">
            <mxPoint x="339" y="-886" as="sourcePoint" />
            <mxPoint x="305" y="-862" as="targetPoint" />
          </mxGeometry>
        </mxCell>
        <mxCell id="ZnF89vh4Ff0g64tPXFYP-109" value="Уволить сотрудника" style="ellipse;whiteSpace=wrap;html=1;" parent="1" vertex="1">
          <mxGeometry x="330" y="-280" width="116" height="60" as="geometry" />
        </mxCell>
        <mxCell id="ZnF89vh4Ff0g64tPXFYP-110" value="" style="endArrow=open;endFill=1;endSize=12;html=1;rounded=0;exitX=1;exitY=0.3333333333333333;exitDx=0;exitDy=0;exitPerimeter=0;entryX=0;entryY=0.5;entryDx=0;entryDy=0;" parent="1" source="ZnF89vh4Ff0g64tPXFYP-4" target="ZnF89vh4Ff0g64tPXFYP-109" edge="1">
          <mxGeometry width="160" relative="1" as="geometry">
            <mxPoint x="281" y="-270" as="sourcePoint" />
            <mxPoint x="341" y="-310" as="targetPoint" />
          </mxGeometry>
        </mxCell>
        <mxCell id="ZnF89vh4Ff0g64tPXFYP-112" value="Проверить оборудование&amp;nbsp;" style="ellipse;whiteSpace=wrap;html=1;" parent="1" vertex="1">
          <mxGeometry x="330" y="-210" width="116" height="60" as="geometry" />
        </mxCell>
        <mxCell id="ZnF89vh4Ff0g64tPXFYP-113" value="" style="endArrow=open;endFill=1;endSize=12;html=1;rounded=0;exitX=1;exitY=0.3333333333333333;exitDx=0;exitDy=0;exitPerimeter=0;entryX=0;entryY=0.5;entryDx=0;entryDy=0;" parent="1" source="ZnF89vh4Ff0g64tPXFYP-4" target="ZnF89vh4Ff0g64tPXFYP-112" edge="1">
          <mxGeometry width="160" relative="1" as="geometry">
            <mxPoint x="281" y="-270" as="sourcePoint" />
            <mxPoint x="340" y="-240" as="targetPoint" />
          </mxGeometry>
        </mxCell>
        <mxCell id="ZnF89vh4Ff0g64tPXFYP-114" value="Отдать оборудование на ремонт" style="ellipse;whiteSpace=wrap;html=1;" parent="1" vertex="1">
          <mxGeometry x="501" y="-215" width="136" height="70" as="geometry" />
        </mxCell>
        <mxCell id="ZnF89vh4Ff0g64tPXFYP-116" value="&quot;extend&quot;" style="endArrow=open;html=1;rounded=0;align=center;verticalAlign=bottom;dashed=1;endFill=0;labelBackgroundColor=none;exitX=0;exitY=0.5;exitDx=0;exitDy=0;entryX=1;entryY=0.5;entryDx=0;entryDy=0;" parent="1" source="ZnF89vh4Ff0g64tPXFYP-114" target="ZnF89vh4Ff0g64tPXFYP-112" edge="1">
          <mxGeometry x="-0.2364" relative="1" as="geometry">
            <mxPoint x="511" y="-380" as="sourcePoint" />
            <mxPoint x="457" y="-380" as="targetPoint" />
            <mxPoint as="offset" />
          </mxGeometry>
        </mxCell>
        <mxCell id="ZnF89vh4Ff0g64tPXFYP-117" value="Получить заявку на поставку сырья" style="ellipse;whiteSpace=wrap;html=1;" parent="1" vertex="1">
          <mxGeometry x="190" y="-130" width="116" height="60" as="geometry" />
        </mxCell>
        <mxCell id="ZnF89vh4Ff0g64tPXFYP-118" value="Подтвердить заявку&amp;nbsp;" style="ellipse;whiteSpace=wrap;html=1;" parent="1" vertex="1">
          <mxGeometry x="354" y="-125" width="96" height="50" as="geometry" />
        </mxCell>
        <mxCell id="ZnF89vh4Ff0g64tPXFYP-119" value="Отклонить заявку&amp;nbsp;" style="ellipse;whiteSpace=wrap;html=1;" parent="1" vertex="1">
          <mxGeometry x="354" y="-60" width="96" height="50" as="geometry" />
        </mxCell>
        <mxCell id="ZnF89vh4Ff0g64tPXFYP-120" value="Осуществить поставку сырья" style="ellipse;whiteSpace=wrap;html=1;" parent="1" vertex="1">
          <mxGeometry x="190" y="-60" width="116" height="60" as="geometry" />
        </mxCell>
        <mxCell id="ZnF89vh4Ff0g64tPXFYP-121" value="" style="endArrow=open;endFill=1;endSize=12;html=1;rounded=0;exitX=1;exitY=0.3333333333333333;exitDx=0;exitDy=0;exitPerimeter=0;entryX=0;entryY=0.5;entryDx=0;entryDy=0;" parent="1" source="ZnF89vh4Ff0g64tPXFYP-3" target="ZnF89vh4Ff0g64tPXFYP-117" edge="1">
          <mxGeometry width="160" relative="1" as="geometry">
            <mxPoint x="281" y="-270" as="sourcePoint" />
            <mxPoint x="340" y="-170" as="targetPoint" />
          </mxGeometry>
        </mxCell>
        <mxCell id="ZnF89vh4Ff0g64tPXFYP-122" value="" style="endArrow=open;endFill=1;endSize=12;html=1;rounded=0;exitX=1;exitY=0.3333333333333333;exitDx=0;exitDy=0;exitPerimeter=0;entryX=0;entryY=0.5;entryDx=0;entryDy=0;" parent="1" source="ZnF89vh4Ff0g64tPXFYP-3" target="ZnF89vh4Ff0g64tPXFYP-120" edge="1">
          <mxGeometry width="160" relative="1" as="geometry">
            <mxPoint x="150" y="-80" as="sourcePoint" />
            <mxPoint x="200" y="-90" as="targetPoint" />
          </mxGeometry>
        </mxCell>
        <mxCell id="ZnF89vh4Ff0g64tPXFYP-123" value="" style="endArrow=block;endSize=12;endFill=0;html=1;rounded=0;entryX=1;entryY=0.5;entryDx=0;entryDy=0;exitX=0;exitY=0.5;exitDx=0;exitDy=0;" parent="1" source="ZnF89vh4Ff0g64tPXFYP-118" target="ZnF89vh4Ff0g64tPXFYP-117" edge="1">
          <mxGeometry width="160" relative="1" as="geometry">
            <mxPoint x="349" y="-11" as="sourcePoint" />
            <mxPoint x="314" y="-75" as="targetPoint" />
          </mxGeometry>
        </mxCell>
        <mxCell id="ZnF89vh4Ff0g64tPXFYP-124" value="" style="endArrow=block;endSize=12;endFill=0;html=1;rounded=0;entryX=1;entryY=1;entryDx=0;entryDy=0;exitX=0;exitY=0.5;exitDx=0;exitDy=0;" parent="1" source="ZnF89vh4Ff0g64tPXFYP-119" target="ZnF89vh4Ff0g64tPXFYP-117" edge="1">
          <mxGeometry width="160" relative="1" as="geometry">
            <mxPoint x="364" y="-90" as="sourcePoint" />
            <mxPoint x="316" y="-90" as="targetPoint" />
          </mxGeometry>
        </mxCell>
      </root>
    </mxGraphModel>
  </diagram>
</mxfile>
